<svg xmlns="http://www.w3.org/2000/svg" xmlns:xlink="http://www.w3.org/1999/xlink" aria-hidden="true" role="img" class="iconify iconify--logos" width="31.88" height="32" preserveAspectRatio="xMidYMid meet" viewBox="0 0 256 257"><defs><linearGradient id="IconifyId1813088fe1fbc01fb466" x1="-.828%" x2="57.636%" y1="7.652%" y2="78.411%"><stop offset="0%" stop-color="#41D1FF"></stop><stop offset="100%" stop-color="#BD34FE"></stop></linearGradient><linearGradient id="IconifyId1813088fe1fbc01fb467" x1="43.376%" x2="50.316%" y1="2.242%" y2="89.033%"><stop offset="0%" stop-color="#FFEA83"></stop><stop offset="8.333%" stop-color="#FFDD35"></stop><stop offset="100%" stop-color="#FFA800"></stop></linearGradient></defs><path fill="url(#IconifyId1813088fe1fbc01fb466)" d="M255.153 37.342L133.517.368a11.823 11.823 0 0 0-11.036 0L.847 37.342a11.823 11.823 0 0 0-5.518 10.25v161.717a11.823 11.823 0 0 0 5.518 10.25l121.636 36.974a11.823 11.823 0 0 0 11.036 0l121.636-36.974a11.823 11.823 0 0 0 5.518-10.25V47.592a11.823 11.823 0 0 0-5.518-10.25z"></path><path fill="url(#IconifyId1813088fe1fbc01fb467)" d="M185.462 56.04l-56.81-32.783a3.941 3.941 0 0 0-3.678 0L68.163 56.04a3.941 3.941 0 0 0-1.84 3.416v65.566a3.941 3.941 0 0 0 1.84 3.416l56.81 32.784a3.941 3.941 0 0 0 3.678 0l56.81-32.784a3.941 3.941 0 0 0 1.84-3.416V59.456a3.941 3.941 0 0 0-1.84-3.416z"></path></svg>